<svg xmlns="http://www.w3.org/2000/svg" xmlns:xlink="http://www.w3.org/1999/xlink" width="16" height="32" viewBox="0 0 16 32">
	<defs>
		<path id="a" d="M15.865 9.002c0 .176-.092.365-.26.573l-2.813 3.307c-.248.28-.586.521-1.016.73-.436.195-.833.286-1.198.286H1.464a1.22 1.22 0 0 1-.521-.104c-.144-.065-.209-.189-.209-.365 0-.169.085-.351.26-.547l2.813-3.307c.241-.293.58-.534 1.016-.73.43-.207.833-.312 1.198-.312h9.114a.95.95 0 0 1 .495.13c.156.072.235.183.235.34zM13 6.138v1.328H6.02c-.52 0-1.067.143-1.64.416-.573.26-1.035.593-1.38.99L.187 12.179l-.052.052V3.976c0-.501.183-.937.547-1.302a1.783 1.783 0 0 1 1.328-.573h2.683c.501 0 .937.195 1.302.573.377.365.573.8.573 1.302v.287h4.557c.501 0 .937.182 1.302.546.378.365.573.808.573 1.329zm0 0"/>
	</defs>
	<use y="16" fill="#036" xlink:href="#a"/>
	<use fill="#447e9b" xlink:href="#a"/>
</svg>
