<svg xmlns="http://www.w3.org/2000/svg" xmlns:xlink="http://www.w3.org/1999/xlink" width="16" height="32" viewBox="0 0 1792 3584">
    <defs>
        <path d="M143.28 252c-62.955 0-113.53 50.61-113.53 113.53v1071.001c0 36.705 18.215 67.66 45.063 88.376a110.442 163.587 55.976 0 0 83.124 37.844h1128.97a110.442 163.587 55.976 0 0 191.843-129.5l310.188-770a110.442 163.587 55.976 0 0-87.282-129.5H1436.53v-64.313c0-62.92-50.574-113.53-113.53-113.53H800.625C708.87 355.906 681.47 252 601.125 252zm377.126 411.25h1128.97l-310.188 770H210.217z" id="icon"/>
    </defs>
    <use xlink:href="#icon" fill="#447e9b"/>
    <use xlink:href="#icon" fill="#036" y="1792"/>
</svg>
